<?xml version="1.0" standalone="no"?><svg xmlns="http://www.w3.org/2000/svg" viewBox="0 0 1440 320"><path fill="#5B4083" fill-opacity="1" d="M0,256L21.8,250.7C43.6,245,87,235,131,229.3C174.5,224,218,224,262,229.3C305.5,235,349,245,393,250.7C436.4,256,480,256,524,245.3C567.3,235,611,213,655,181.3C698.2,149,742,107,785,85.3C829.1,64,873,64,916,96C960,128,1004,192,1047,213.3C1090.9,235,1135,213,1178,192C1221.8,171,1265,149,1309,133.3C1352.7,117,1396,107,1418,101.3L1440,96L1440,320L1418.2,320C1396.4,320,1353,320,1309,320C1265.5,320,1222,320,1178,320C1134.5,320,1091,320,1047,320C1003.6,320,960,320,916,320C872.7,320,829,320,785,320C741.8,320,698,320,655,320C610.9,320,567,320,524,320C480,320,436,320,393,320C349.1,320,305,320,262,320C218.2,320,175,320,131,320C87.3,320,44,320,22,320L0,320Z"></path></svg>