<?xml version="1.0" standalone="no"?><svg xmlns="http://www.w3.org/2000/svg" viewBox="0 0 1440 320"><path fill="#5B4083" fill-opacity="1" d="M0,96L34.3,96C68.6,96,137,96,206,96C274.3,96,343,96,411,85.3C480,75,549,53,617,69.3C685.7,85,754,139,823,160C891.4,181,960,171,1029,176C1097.1,181,1166,203,1234,218.7C1302.9,235,1371,245,1406,250.7L1440,256L1440,0L1405.7,0C1371.4,0,1303,0,1234,0C1165.7,0,1097,0,1029,0C960,0,891,0,823,0C754.3,0,686,0,617,0C548.6,0,480,0,411,0C342.9,0,274,0,206,0C137.1,0,69,0,34,0L0,0Z"></path></svg>