<?xml version="1.0" standalone="no"?><svg xmlns="http://www.w3.org/2000/svg" viewBox="0 0 1440 320"><path fill="#74388E" fill-opacity="1" d="M0,32L30,64C60,96,120,160,180,181.3C240,203,300,181,360,149.3C420,117,480,75,540,96C600,117,660,203,720,213.3C780,224,840,160,900,154.7C960,149,1020,203,1080,234.7C1140,267,1200,277,1260,234.7C1320,192,1380,96,1410,48L1440,0L1440,0L1410,0C1380,0,1320,0,1260,0C1200,0,1140,0,1080,0C1020,0,960,0,900,0C840,0,780,0,720,0C660,0,600,0,540,0C480,0,420,0,360,0C300,0,240,0,180,0C120,0,60,0,30,0L0,0Z"></path></svg>