<?xml version="1.0" standalone="no"?><svg xmlns="http://www.w3.org/2000/svg" viewBox="0 0 1440 320"><path fill="#7B3890" fill-opacity="1" d="M0,320L12.6,314.7C25.3,309,51,299,76,272C101.1,245,126,203,152,186.7C176.8,171,202,181,227,202.7C252.6,224,278,256,303,245.3C328.4,235,354,181,379,138.7C404.2,96,429,64,455,53.3C480,43,505,53,531,96C555.8,139,581,213,606,250.7C631.6,288,657,288,682,245.3C707.4,203,733,117,758,106.7C783.2,96,808,160,834,181.3C858.9,203,884,181,909,149.3C934.7,117,960,75,985,58.7C1010.5,43,1036,53,1061,58.7C1086.3,64,1112,64,1137,69.3C1162.1,75,1187,85,1213,90.7C1237.9,96,1263,96,1288,128C1313.7,160,1339,224,1364,250.7C1389.5,277,1415,267,1427,261.3L1440,256L1440,0L1427.4,0C1414.7,0,1389,0,1364,0C1338.9,0,1314,0,1288,0C1263.2,0,1238,0,1213,0C1187.4,0,1162,0,1137,0C1111.6,0,1086,0,1061,0C1035.8,0,1011,0,985,0C960,0,935,0,909,0C884.2,0,859,0,834,0C808.4,0,783,0,758,0C732.6,0,707,0,682,0C656.8,0,632,0,606,0C581.1,0,556,0,531,0C505.3,0,480,0,455,0C429.5,0,404,0,379,0C353.7,0,328,0,303,0C277.9,0,253,0,227,0C202.1,0,177,0,152,0C126.3,0,101,0,76,0C50.5,0,25,0,13,0L0,0Z"></path></svg>