<?xml version="1.0" standalone="no"?><svg xmlns="http://www.w3.org/2000/svg" viewBox="0 0 1440 320"><path fill="#6C388D" fill-opacity="1" d="M0,192L30,165.3C60,139,120,85,180,64C240,43,300,53,360,74.7C420,96,480,128,540,149.3C600,171,660,181,720,192C780,203,840,213,900,192C960,171,1020,117,1080,133.3C1140,149,1200,235,1260,261.3C1320,288,1380,256,1410,240L1440,224L1440,0L1410,0C1380,0,1320,0,1260,0C1200,0,1140,0,1080,0C1020,0,960,0,900,0C840,0,780,0,720,0C660,0,600,0,540,0C480,0,420,0,360,0C300,0,240,0,180,0C120,0,60,0,30,0L0,0Z"></path></svg>